<mxfile host="app.diagrams.net" agent="Mozilla/5.0 (Macintosh; Intel Mac OS X 10_15_7) AppleWebKit/537.36 (KHTML, like Gecko) Chrome/131.0.0.0 Safari/537.36" version="25.0.3">
  <diagram name="Page-1" id="3uTn_LokgoNNtJIiI16y">
    <mxGraphModel dx="1194" dy="789" grid="1" gridSize="10" guides="1" tooltips="1" connect="1" arrows="1" fold="1" page="1" pageScale="1" pageWidth="850" pageHeight="1100" math="0" shadow="0">
      <root>
        <mxCell id="0" />
        <mxCell id="1" parent="0" />
        <mxCell id="Ry8Fgfybo8HVrPWoujQz-25" style="edgeStyle=orthogonalEdgeStyle;rounded=0;orthogonalLoop=1;jettySize=auto;html=1;entryX=0.5;entryY=0;entryDx=0;entryDy=0;" edge="1" parent="1" source="Ry8Fgfybo8HVrPWoujQz-26" target="Ry8Fgfybo8HVrPWoujQz-27">
          <mxGeometry relative="1" as="geometry" />
        </mxCell>
        <mxCell id="Ry8Fgfybo8HVrPWoujQz-26" value="start" style="strokeWidth=2;html=1;shape=mxgraph.flowchart.start_1;whiteSpace=wrap;" vertex="1" parent="1">
          <mxGeometry x="360" y="100" width="100" height="60" as="geometry" />
        </mxCell>
        <mxCell id="Ry8Fgfybo8HVrPWoujQz-27" value="input n" style="shape=parallelogram;html=1;strokeWidth=2;perimeter=parallelogramPerimeter;whiteSpace=wrap;rounded=1;arcSize=12;size=0.23;" vertex="1" parent="1">
          <mxGeometry x="360" y="240" width="100" height="60" as="geometry" />
        </mxCell>
        <mxCell id="Ry8Fgfybo8HVrPWoujQz-28" style="edgeStyle=orthogonalEdgeStyle;rounded=0;orthogonalLoop=1;jettySize=auto;html=1;" edge="1" parent="1" source="Ry8Fgfybo8HVrPWoujQz-29" target="Ry8Fgfybo8HVrPWoujQz-30">
          <mxGeometry relative="1" as="geometry" />
        </mxCell>
        <mxCell id="Ry8Fgfybo8HVrPWoujQz-29" value="n &amp;lt;= 1" style="strokeWidth=2;html=1;shape=mxgraph.flowchart.decision;whiteSpace=wrap;" vertex="1" parent="1">
          <mxGeometry x="360" y="340" width="100" height="100" as="geometry" />
        </mxCell>
        <mxCell id="Ry8Fgfybo8HVrPWoujQz-30" value="input i = 2" style="shape=parallelogram;html=1;strokeWidth=2;perimeter=parallelogramPerimeter;whiteSpace=wrap;rounded=1;arcSize=12;size=0.23;" vertex="1" parent="1">
          <mxGeometry x="360" y="480" width="100" height="60" as="geometry" />
        </mxCell>
        <mxCell id="Ry8Fgfybo8HVrPWoujQz-31" value="i += 1; i &amp;lt;sqrt (n)" style="strokeWidth=2;html=1;shape=mxgraph.flowchart.decision;whiteSpace=wrap;" vertex="1" parent="1">
          <mxGeometry x="360" y="580" width="100" height="100" as="geometry" />
        </mxCell>
        <mxCell id="Ry8Fgfybo8HVrPWoujQz-32" style="edgeStyle=orthogonalEdgeStyle;rounded=0;orthogonalLoop=1;jettySize=auto;html=1;entryX=0.5;entryY=0;entryDx=0;entryDy=0;entryPerimeter=0;" edge="1" parent="1" source="Ry8Fgfybo8HVrPWoujQz-33" target="Ry8Fgfybo8HVrPWoujQz-38">
          <mxGeometry relative="1" as="geometry">
            <mxPoint x="560" y="800" as="targetPoint" />
          </mxGeometry>
        </mxCell>
        <mxCell id="Ry8Fgfybo8HVrPWoujQz-33" value="n%i==0" style="strokeWidth=2;html=1;shape=mxgraph.flowchart.decision;whiteSpace=wrap;" vertex="1" parent="1">
          <mxGeometry x="360" y="760" width="100" height="100" as="geometry" />
        </mxCell>
        <mxCell id="Ry8Fgfybo8HVrPWoujQz-34" style="edgeStyle=orthogonalEdgeStyle;rounded=0;orthogonalLoop=1;jettySize=auto;html=1;entryX=0.5;entryY=0;entryDx=0;entryDy=0;entryPerimeter=0;" edge="1" parent="1" source="Ry8Fgfybo8HVrPWoujQz-27" target="Ry8Fgfybo8HVrPWoujQz-29">
          <mxGeometry relative="1" as="geometry" />
        </mxCell>
        <mxCell id="Ry8Fgfybo8HVrPWoujQz-35" style="edgeStyle=orthogonalEdgeStyle;rounded=0;orthogonalLoop=1;jettySize=auto;html=1;entryX=0.5;entryY=0;entryDx=0;entryDy=0;entryPerimeter=0;" edge="1" parent="1" source="Ry8Fgfybo8HVrPWoujQz-30" target="Ry8Fgfybo8HVrPWoujQz-31">
          <mxGeometry relative="1" as="geometry" />
        </mxCell>
        <mxCell id="Ry8Fgfybo8HVrPWoujQz-36" style="edgeStyle=orthogonalEdgeStyle;rounded=0;orthogonalLoop=1;jettySize=auto;html=1;entryX=0.5;entryY=0;entryDx=0;entryDy=0;entryPerimeter=0;" edge="1" parent="1" source="Ry8Fgfybo8HVrPWoujQz-31" target="Ry8Fgfybo8HVrPWoujQz-33">
          <mxGeometry relative="1" as="geometry" />
        </mxCell>
        <mxCell id="Ry8Fgfybo8HVrPWoujQz-37" value="false" style="text;html=1;align=center;verticalAlign=middle;resizable=0;points=[];autosize=1;strokeColor=none;fillColor=none;" vertex="1" parent="1">
          <mxGeometry x="450" y="810" width="50" height="30" as="geometry" />
        </mxCell>
        <mxCell id="Ry8Fgfybo8HVrPWoujQz-38" value="N la so nguyen to" style="strokeWidth=2;html=1;shape=mxgraph.flowchart.display;whiteSpace=wrap;" vertex="1" parent="1">
          <mxGeometry x="520" y="950" width="100" height="60" as="geometry" />
        </mxCell>
        <mxCell id="Ry8Fgfybo8HVrPWoujQz-39" value="N khong phai la so nguyen to" style="strokeWidth=2;html=1;shape=mxgraph.flowchart.display;whiteSpace=wrap;" vertex="1" parent="1">
          <mxGeometry x="360" y="950" width="100" height="60" as="geometry" />
        </mxCell>
        <mxCell id="Ry8Fgfybo8HVrPWoujQz-40" style="edgeStyle=orthogonalEdgeStyle;rounded=0;orthogonalLoop=1;jettySize=auto;html=1;entryX=0.5;entryY=0;entryDx=0;entryDy=0;entryPerimeter=0;" edge="1" parent="1" source="Ry8Fgfybo8HVrPWoujQz-33" target="Ry8Fgfybo8HVrPWoujQz-39">
          <mxGeometry relative="1" as="geometry" />
        </mxCell>
        <mxCell id="Ry8Fgfybo8HVrPWoujQz-41" value="true" style="text;html=1;align=center;verticalAlign=middle;resizable=0;points=[];autosize=1;strokeColor=none;fillColor=none;" vertex="1" parent="1">
          <mxGeometry x="370" y="860" width="40" height="30" as="geometry" />
        </mxCell>
        <mxCell id="Ry8Fgfybo8HVrPWoujQz-42" style="edgeStyle=orthogonalEdgeStyle;rounded=0;orthogonalLoop=1;jettySize=auto;html=1;entryX=1;entryY=0.5;entryDx=0;entryDy=0;entryPerimeter=0;" edge="1" parent="1" source="Ry8Fgfybo8HVrPWoujQz-38" target="Ry8Fgfybo8HVrPWoujQz-31">
          <mxGeometry relative="1" as="geometry">
            <Array as="points">
              <mxPoint x="750" y="980" />
              <mxPoint x="750" y="630" />
            </Array>
          </mxGeometry>
        </mxCell>
        <mxCell id="Ry8Fgfybo8HVrPWoujQz-43" value="End" style="strokeWidth=2;html=1;shape=mxgraph.flowchart.start_1;whiteSpace=wrap;" vertex="1" parent="1">
          <mxGeometry x="160" y="950" width="100" height="60" as="geometry" />
        </mxCell>
        <mxCell id="Ry8Fgfybo8HVrPWoujQz-44" style="edgeStyle=orthogonalEdgeStyle;rounded=0;orthogonalLoop=1;jettySize=auto;html=1;entryX=0.5;entryY=0;entryDx=0;entryDy=0;entryPerimeter=0;" edge="1" parent="1" source="Ry8Fgfybo8HVrPWoujQz-31" target="Ry8Fgfybo8HVrPWoujQz-43">
          <mxGeometry relative="1" as="geometry" />
        </mxCell>
        <mxCell id="Ry8Fgfybo8HVrPWoujQz-45" value="false" style="text;html=1;align=center;verticalAlign=middle;resizable=0;points=[];autosize=1;strokeColor=none;fillColor=none;" vertex="1" parent="1">
          <mxGeometry x="320" y="600" width="50" height="30" as="geometry" />
        </mxCell>
        <mxCell id="Ry8Fgfybo8HVrPWoujQz-46" value="true" style="text;html=1;align=center;verticalAlign=middle;resizable=0;points=[];autosize=1;strokeColor=none;fillColor=none;" vertex="1" parent="1">
          <mxGeometry x="410" y="670" width="40" height="30" as="geometry" />
        </mxCell>
        <mxCell id="Ry8Fgfybo8HVrPWoujQz-48" style="edgeStyle=orthogonalEdgeStyle;rounded=0;orthogonalLoop=1;jettySize=auto;html=1;entryX=1;entryY=0.5;entryDx=0;entryDy=0;entryPerimeter=0;" edge="1" parent="1" source="Ry8Fgfybo8HVrPWoujQz-39" target="Ry8Fgfybo8HVrPWoujQz-43">
          <mxGeometry relative="1" as="geometry" />
        </mxCell>
      </root>
    </mxGraphModel>
  </diagram>
</mxfile>
